<?xml version="1.0" encoding="UTF-8"?>
<!DOCTYPE svg PUBLIC "-//W3C//DTD SVG 1.1//EN" "http://www.w3.org/Graphics/SVG/1.1/DTD/svg11.dtd">
<svg xmlns="http://www.w3.org/2000/svg" version="1.1" width="901px" height="803px" style="shape-rendering:geometricPrecision; text-rendering:geometricPrecision; image-rendering:optimizeQuality; fill-rule:evenodd; clip-rule:evenodd" xmlns:xlink="http://www.w3.org/1999/xlink">
<g><path style="opacity:0.944" fill="#121d40" d="M 387.5,-0.5 C 388.5,-0.5 389.5,-0.5 390.5,-0.5C 404.521,45.5797 418.854,91.5797 433.5,137.5C 420.016,140.068 406.516,142.402 393,144.5C 389.732,136.434 387.232,128.1 385.5,119.5C 379.145,119.979 372.812,120.646 366.5,121.5C 366.3,130.506 365.966,139.506 365.5,148.5C 352.144,149.979 338.81,151.646 325.5,153.5C 326.592,105.182 327.592,56.8483 328.5,8.5C 348.336,5.76269 368.003,2.76269 387.5,-0.5 Z M 365.5,48.5 C 369.454,60.9644 373.12,73.6311 376.5,86.5C 373.385,88.0479 370.051,89.0479 366.5,89.5C 365.501,75.8496 365.167,62.1829 365.5,48.5 Z"/></g>
<g><path style="opacity:0.943" fill="#141d40" d="M 462.5,-0.5 C 465.167,-0.5 467.833,-0.5 470.5,-0.5C 488.979,1.71129 507.645,3.54462 526.5,5C 533.315,12.1541 539.815,19.6541 546,27.5C 545.346,40.1926 544.179,52.8593 542.5,65.5C 540.833,65.8333 539.167,66.1667 537.5,66.5C 525.186,65.1986 512.852,64.1986 500.5,63.5C 500.974,56.6505 501.64,49.8172 502.5,43C 502.167,42.1667 501.833,41.3333 501.5,40.5C 494.893,39.4143 488.226,38.7477 481.5,38.5C 479.02,61.4487 477.02,84.4487 475.5,107.5C 482.226,107.748 488.893,108.414 495.5,109.5C 496.833,99.8333 498.167,90.1667 499.5,80.5C 513.517,81.9261 527.517,83.5928 541.5,85.5C 539.792,100.121 538.292,114.788 537,129.5C 529.873,134.959 523.039,140.792 516.5,147C 494.792,146.178 473.126,144.512 451.5,142C 445,134.833 438.5,127.667 432,120.5C 434.226,86.4585 437.226,52.4585 441,18.5C 448.145,12.0318 455.312,5.69848 462.5,-0.5 Z"/></g>
<g><path style="opacity:1" fill="#f74c0a" d="M 380.5,7.5 C 382.766,7.14118 384.599,7.80784 386,9.5C 398.641,50.4217 411.474,91.2551 424.5,132C 415.237,133.919 405.904,135.419 396.5,136.5C 395.131,128.356 393.131,120.356 390.5,112.5C 389.333,112.167 388.167,111.833 387,111.5C 377.813,112.789 368.647,114.122 359.5,115.5C 359.666,124.173 359.5,132.84 359,141.5C 350.841,142.69 342.675,144.023 334.5,145.5C 333.73,101.837 333.73,58.1708 334.5,14.5C 350.02,12.5222 365.353,10.1888 380.5,7.5 Z M 365.5,48.5 C 365.167,62.1829 365.501,75.8496 366.5,89.5C 370.051,89.0479 373.385,88.0479 376.5,86.5C 373.12,73.6311 369.454,60.9644 365.5,48.5 Z"/></g>
<g><path style="opacity:1" fill="#f74c0a" d="M 465.5,6.5 C 484.823,8.36274 504.157,10.1961 523.5,12C 528.711,17.5417 533.544,23.3751 538,29.5C 538.015,39.5122 537.515,49.5122 536.5,59.5C 527.516,58.6123 518.516,57.779 509.5,57C 508.738,49.2402 508.738,41.4069 509.5,33.5C 497.806,32.8005 486.139,31.8005 474.5,30.5C 472.227,58.1717 469.893,85.8384 467.5,113.5C 479.12,114.92 490.787,115.92 502.5,116.5C 503.467,107.19 504.134,97.8571 504.5,88.5C 514.129,89.648 523.796,90.3147 533.5,90.5C 532.604,102.189 531.437,113.855 530,125.5C 524.5,130.333 519,135.167 513.5,140C 493.769,139.297 474.103,137.631 454.5,135C 449.333,129.167 444.167,123.333 439,117.5C 441.422,86.1851 444.089,54.8517 447,23.5C 452.873,17.486 459.039,11.8193 465.5,6.5 Z"/></g>
<g><path style="opacity:0.95" fill="#131d40" d="M 577.5,11.5 C 590.639,16.1015 603.972,20.1015 617.5,23.5C 607.874,57.8794 597.54,92.0461 586.5,126C 593.422,127.974 600.255,130.141 607,132.5C 617.836,98.4845 628.67,64.4845 639.5,30.5C 652.667,35.1117 666,39.1117 679.5,42.5C 667.826,81.5268 655.992,120.527 644,159.5C 635.914,164.127 627.747,168.627 619.5,173C 617.5,173.667 615.5,173.667 613.5,173C 594.167,167 574.833,161 555.5,155C 550.413,146.238 545.746,137.238 541.5,128C 553.429,89.1084 565.429,50.2751 577.5,11.5 Z"/></g>
<g><path style="opacity:1" fill="#f74c0a" d="M 581.5,20.5 C 590.466,23.3244 599.466,25.9911 608.5,28.5C 598.504,62.8225 588.504,97.1558 578.5,131.5C 588.237,134.023 597.904,136.856 607.5,140C 609.259,140.798 610.926,140.631 612.5,139.5C 622.766,106.536 632.932,73.5357 643,40.5C 643.414,40.0426 643.914,39.7093 644.5,39.5C 653.099,42.4815 661.766,45.1482 670.5,47.5C 659.977,83.2385 649.143,118.905 638,154.5C 630.914,158.627 623.747,162.627 616.5,166.5C 597.736,160.968 579.07,155.134 560.5,149C 556.258,141.933 552.592,134.599 549.5,127C 560.274,91.5139 570.94,56.0139 581.5,20.5 Z"/></g>
<g><path style="opacity:0.951" fill="#131d40" d="M 250.5,28.5 C 260.312,31.7383 269.645,36.0716 278.5,41.5C 283.364,53.4268 288.031,65.4268 292.5,77.5C 290.64,82.0539 288.64,86.5539 286.5,91C 291.179,94.3412 296.179,97.1745 301.5,99.5C 308.74,117.724 316.073,135.89 323.5,154C 310.431,160.019 297.098,165.019 283.5,169C 276.871,152.905 270.371,136.738 264,120.5C 260.341,122.387 256.508,123.887 252.5,125C 249.399,125.855 246.732,127.355 244.5,129.5C 251.127,145.214 257.46,161.047 263.5,177C 262.556,178.477 261.223,179.477 259.5,180C 247.578,184.798 235.578,189.298 223.5,193.5C 206.74,149.308 189.407,105.308 171.5,61.5C 172.09,60.2011 173.09,59.3678 174.5,59C 200.035,49.0563 225.368,38.8897 250.5,28.5 Z M 243.5,71.5 C 246.384,76.1072 248.717,81.1072 250.5,86.5C 244.364,89.5482 238.03,92.2148 231.5,94.5C 228.512,89.5349 226.512,84.2015 225.5,78.5C 231.78,76.6862 237.78,74.3528 243.5,71.5 Z"/></g>
<g><path style="opacity:1" fill="#f84c09" d="M 249.5,36.5 C 257.59,39.1254 265.423,42.4588 273,46.5C 277.069,56.8733 281.236,67.2066 285.5,77.5C 282.245,83.0084 279.245,88.675 276.5,94.5C 283.1,98.1365 289.767,101.803 296.5,105.5C 302.094,120.518 308.094,135.352 314.5,150C 305.873,153.598 297.207,157.098 288.5,160.5C 281.305,144.249 274.305,127.915 267.5,111.5C 256.479,115.609 245.812,120.275 235.5,125.5C 241.735,141.373 248.069,157.207 254.5,173C 254.095,173.945 253.428,174.612 252.5,175C 244.388,177.89 236.388,181.056 228.5,184.5C 212.634,144.604 196.634,104.77 180.5,65C 203.559,55.4651 226.559,45.9651 249.5,36.5 Z M 243.5,71.5 C 237.78,74.3528 231.78,76.6862 225.5,78.5C 226.512,84.2015 228.512,89.5349 231.5,94.5C 238.03,92.2148 244.364,89.5482 250.5,86.5C 248.717,81.1072 246.384,76.1072 243.5,71.5 Z"/></g>
<g><path style="opacity:0.97" fill="#181e3f" d="M 362.5,36.5 C 365.167,36.5 367.833,36.5 370.5,36.5C 375.299,55.561 380.299,74.561 385.5,93.5C 376.783,94.5547 368.116,95.888 359.5,97.5C 358.5,77.5111 358.167,57.5111 358.5,37.5C 360.099,37.7678 361.432,37.4345 362.5,36.5 Z M 365.5,48.5 C 365.167,62.1829 365.501,75.8496 366.5,89.5C 370.051,89.0479 373.385,88.0479 376.5,86.5C 373.12,73.6311 369.454,60.9644 365.5,48.5 Z"/></g>
<g><path style="opacity:0.948" fill="#121d40" d="M 167.5,62.5 C 172.493,91.9426 176.993,121.609 181,151.5C 190.119,168.908 199.619,186.075 209.5,203C 196.996,210.42 184.329,217.586 171.5,224.5C 161.493,207.823 151.993,190.823 143,173.5C 119.741,154.119 96.574,134.619 73.5,115C 86.1071,107.446 98.9404,100.279 112,93.5C 120.963,102.131 129.63,111.131 138,120.5C 135.49,108.127 132.823,95.7937 130,83.5C 142.482,76.3457 154.982,69.3457 167.5,62.5 Z"/></g>
<g><path style="opacity:0.961" fill="#141d40" d="M 246.5,62.5 C 248.411,62.5743 249.578,63.5743 250,65.5C 253.167,73.6667 256.333,81.8333 259.5,90C 249.378,95.1382 238.878,99.6382 228,103.5C 223.464,94.584 219.297,85.4173 215.5,76C 225.859,71.3868 236.192,66.8868 246.5,62.5 Z M 243.5,71.5 C 237.78,74.3528 231.78,76.6862 225.5,78.5C 226.512,84.2015 228.512,89.5349 231.5,94.5C 238.03,92.2148 244.364,89.5482 250.5,86.5C 248.717,81.1072 246.384,76.1072 243.5,71.5 Z"/></g>
<g><path style="opacity:0.951" fill="#121d40" d="M 724.5,62.5 C 743.878,71.6898 762.878,81.6898 781.5,92.5C 784.934,102.303 788.268,112.137 791.5,122C 786.7,131.108 781.533,139.942 776,148.5C 763.314,142.455 751.147,135.622 739.5,128C 741.928,123.966 743.761,119.799 745,115.5C 739.111,111.555 733.111,108.555 727,106.5C 724.626,110.75 722.126,114.916 719.5,119C 732.415,126.374 745.249,133.874 758,141.5C 760.578,150.313 763.078,159.147 765.5,168C 758.41,182.344 750.91,196.511 743,210.5C 733.499,213.418 723.999,216.418 714.5,219.5C 695.96,209.132 677.293,198.966 658.5,189C 655.105,179.48 652.105,169.813 649.5,160C 653.599,150.299 658.599,141.132 664.5,132.5C 676.833,139.333 689.167,146.167 701.5,153C 699.293,157.247 696.96,161.414 694.5,165.5C 700.245,169.234 706.245,172.568 712.5,175.5C 715.831,171.165 718.331,166.499 720,161.5C 707.753,154.96 695.587,148.294 683.5,141.5C 680.195,132.283 677.195,122.949 674.5,113.5C 682.167,99.5 689.833,85.5 697.5,71.5C 706.525,68.2694 715.525,65.2694 724.5,62.5 Z"/></g>
<g><path style="opacity:1" fill="#f74c0a" d="M 721.5,70.5 C 723.527,70.3379 725.527,70.5045 727.5,71C 743.454,79.9281 759.454,88.7615 775.5,97.5C 778.65,105.114 781.316,112.947 783.5,121C 780.373,127.426 776.873,133.593 773,139.5C 765.333,135.167 757.667,130.833 750,126.5C 750.808,121.699 752.641,117.199 755.5,113C 745.994,107.413 736.327,102.08 726.5,97C 725.365,96.2506 724.365,96.4173 723.5,97.5C 719.032,105.603 714.699,113.77 710.5,122C 723.479,130.16 736.812,137.827 750.5,145C 753.644,152.261 756.31,159.761 758.5,167.5C 751.667,179.833 744.833,192.167 738,204.5C 730.599,207.06 723.099,209.394 715.5,211.5C 698.218,202.859 681.218,193.692 664.5,184C 661.697,176.224 659.03,168.391 656.5,160.5C 659.679,154.13 663.346,148.13 667.5,142.5C 675.382,146.692 683.215,151.026 691,155.5C 689.934,158.966 688.267,162.299 686,165.5C 685.28,167.112 685.446,168.612 686.5,170C 696.272,174.932 705.939,180.099 715.5,185.5C 720.627,176.748 725.627,167.914 730.5,159C 716.833,151.5 703.167,144 689.5,136.5C 686.772,129.315 684.439,121.982 682.5,114.5C 688.473,101.887 694.973,89.5539 702,77.5C 708.544,75.043 715.044,72.7097 721.5,70.5 Z"/></g>
<g><path style="opacity:1" fill="#f74c0a" d="M 161.5,73.5 C 162.725,74.1522 163.392,75.3189 163.5,77C 167,102.167 170.5,127.333 174,152.5C 182.231,168.627 190.731,184.627 199.5,200.5C 191.296,205.434 182.963,210.101 174.5,214.5C 165.509,199.86 157.009,184.86 149,169.5C 127.833,151.667 106.667,133.833 85.5,116C 93.8333,111.5 102.167,107 110.5,102.5C 122.488,114.655 134.321,126.989 146,139.5C 148.053,138.733 149.553,137.4 150.5,135.5C 146.256,119.606 141.922,103.773 137.5,88C 145.671,83.3034 153.671,78.4701 161.5,73.5 Z"/></g>
<g><path style="opacity:0.944" fill="#121d40" d="M 900.5,172.5 C 900.5,173.5 900.5,174.5 900.5,175.5C 893.231,184.774 885.564,193.774 877.5,202.5C 863.689,191.857 850.023,181.024 836.5,170C 835.004,169.493 833.837,169.993 833,171.5C 830.667,174.5 828.333,177.5 826,180.5C 825.333,181.167 825.333,181.833 826,182.5C 837.338,191.675 848.504,201.008 859.5,210.5C 852.451,219.967 844.951,228.967 837,237.5C 825.344,228.514 813.678,219.514 802,210.5C 799,214.167 796,217.833 793,221.5C 792.837,223.387 793.671,224.887 795.5,226C 808.669,236.341 821.669,246.841 834.5,257.5C 826.823,266.873 819.156,276.206 811.5,285.5C 785.734,265.904 760.401,245.737 735.5,225C 765.341,187.664 795.341,150.497 825.5,113.5C 850.251,133.595 875.251,153.262 900.5,172.5 Z"/></g>
<g><path style="opacity:1" fill="#f74c0a" d="M 825.5,123.5 C 842.801,136.166 859.801,149.332 876.5,163C 881.341,167.01 886.008,171.177 890.5,175.5C 886.559,181.774 881.892,187.44 876.5,192.5C 862.689,181.857 849.023,171.024 835.5,160C 833.613,159.837 832.113,160.671 831,162.5C 825.642,169.024 820.475,175.69 815.5,182.5C 826.496,191.992 837.662,201.325 849,210.5C 848.602,212.631 847.602,214.631 846,216.5C 842.667,220.5 839.333,224.5 836,228.5C 824.622,218.787 812.955,209.453 801,200.5C 794.644,208.022 788.477,215.689 782.5,223.5C 796.163,234.992 809.997,246.326 824,257.5C 824.667,258.167 824.667,258.833 824,259.5C 819.283,264.712 814.783,270.045 810.5,275.5C 788.469,258.815 766.803,241.648 745.5,224C 772.38,190.625 799.047,157.125 825.5,123.5 Z"/></g>
<g><path style="opacity:0.944" fill="#121d40" d="M -0.5,198.5 C -0.5,197.5 -0.5,196.5 -0.5,195.5C 0.825294,186.306 2.15863,176.973 3.5,167.5C 18.6449,155.523 33.6449,143.356 48.5,131C 50.6088,129.093 53.1088,128.26 56,128.5C 64.8275,129.393 73.6608,130.227 82.5,131C 88.3562,137.222 93.8562,143.722 99,150.5C 100.289,152.055 100.956,153.721 101,155.5C 90.5167,164.406 79.85,173.073 69,181.5C 65.9294,178.352 63.0961,175.019 60.5,171.5C 59.9984,170.479 59.3317,170.312 58.5,171C 53.5,175.333 48.5,179.667 43.5,184C 46.6758,188.006 50.0092,191.84 53.5,195.5C 64.3108,187.19 74.9775,178.69 85.5,170C 95.202,169.855 104.869,170.522 114.5,172C 116.96,173.458 119.127,175.291 121,177.5C 129.627,188.594 138.127,199.761 146.5,211C 145.301,220.486 144.135,229.986 143,239.5C 126.285,253.056 109.451,266.389 92.5,279.5C 82.4932,278.424 72.4932,277.257 62.5,276C 56.1044,268.609 50.1044,260.942 44.5,253C 54.4795,244.03 64.8129,235.363 75.5,227C 76.5,226.333 77.5,226.333 78.5,227C 81.0083,230.338 83.675,233.505 86.5,236.5C 92.2396,232.635 97.5729,228.302 102.5,223.5C 99.6207,219.576 96.6207,215.743 93.5,212C 92.8333,211.333 92.1667,211.333 91.5,212C 80.8333,220.667 70.1667,229.333 59.5,238C 49.4877,237.518 39.4877,236.518 29.5,235C 20.0136,222.353 10.0136,210.186 -0.5,198.5 Z"/></g>
<g><path style="opacity:1" fill="#f74c0a" d="M 54.5,135.5 C 62.8197,136.362 71.1531,137.196 79.5,138C 83.6209,143.076 87.6209,148.243 91.5,153.5C 84.6507,159.847 77.4841,165.847 70,171.5C 66.991,167.661 63.8244,163.994 60.5,160.5C 51.5,167.833 42.5,175.167 33.5,182.5C 39.31,190.144 45.31,197.644 51.5,205C 53.2785,204.956 54.9452,204.289 56.5,203C 67.1667,194.333 77.8333,185.667 88.5,177C 96.518,177.096 104.518,177.763 112.5,179C 121,189.5 129.5,200 138,210.5C 138.552,219.309 137.719,227.975 135.5,236.5C 120.5,248.5 105.5,260.5 90.5,272.5C 82.8859,271.398 75.2192,270.565 67.5,270C 62.7742,264.945 58.4409,259.612 54.5,254C 61.0372,247.47 68.2039,241.636 76,236.5C 79.3547,239.687 82.5214,243.021 85.5,246.5C 94.6063,239.861 103.44,232.861 112,225.5C 112.667,224.833 112.667,224.167 112,223.5C 106.167,216.333 100.333,209.167 94.5,202C 93.8333,201.333 93.1667,201.333 92.5,202C 80.5313,212.314 68.198,222.148 55.5,231.5C 48.1416,230.516 40.8083,229.349 33.5,228C 25,217.5 16.5,207 8,196.5C 7.56334,188.093 8.23001,179.759 10,171.5C 24.7321,159.257 39.5654,147.257 54.5,135.5 Z"/></g>
<g><path style="opacity:0.968" fill="#0e1d40" d="M 582.5,802.5 C 493.5,802.5 404.5,802.5 315.5,802.5C 287.535,774.035 259.368,745.701 231,717.5C 230.5,677.168 230.333,636.835 230.5,596.5C 286.5,596.5 342.5,596.5 398.5,596.5C 398.5,617.5 398.5,638.5 398.5,659.5C 433.5,659.5 468.5,659.5 503.5,659.5C 503.5,631.167 503.5,602.833 503.5,574.5C 439.832,574.667 376.166,574.5 312.5,574C 284.972,546.805 257.805,519.305 231,491.5C 230.333,425.167 230.333,358.833 231,292.5C 259.167,264.333 287.333,236.167 315.5,208C 404.5,207.333 493.5,207.333 582.5,208C 611.429,235.718 640.263,263.552 669,291.5C 669.5,331.832 669.667,372.165 669.5,412.5C 614.167,412.5 558.833,412.5 503.5,412.5C 503.5,391.833 503.5,371.167 503.5,350.5C 468.5,350.5 433.5,350.5 398.5,350.5C 398.5,378.833 398.5,407.167 398.5,435.5C 461.834,435.333 525.168,435.5 588.5,436C 615.695,462.861 642.528,490.028 669,517.5C 669.667,584.5 669.667,651.5 669,718.5C 639.663,746.004 610.83,774.004 582.5,802.5 Z"/></g>
<g><path style="opacity:1" fill="#f94c09" d="M 656.5,297.5 C 656.5,331.5 656.5,365.5 656.5,399.5C 609.833,399.5 563.167,399.5 516.5,399.5C 516.5,379.167 516.5,358.833 516.5,338.5C 472.833,338.5 429.167,338.5 385.5,338.5C 385.5,374.833 385.5,411.167 385.5,447.5C 451.168,447.333 516.834,447.5 582.5,448C 607.695,472.861 632.528,498.028 657,523.5C 657.667,586.5 657.667,649.5 657,712.5C 630.196,737.636 603.696,763.136 577.5,789C 492.167,789.667 406.833,789.667 321.5,789C 295.361,763.862 269.528,738.362 244,712.5C 243.5,678.168 243.333,643.835 243.5,609.5C 290.833,609.5 338.167,609.5 385.5,609.5C 385.5,630.167 385.5,650.833 385.5,671.5C 429.167,671.5 472.833,671.5 516.5,671.5C 516.5,635.167 516.5,598.833 516.5,562.5C 450.499,562.667 384.499,562.5 318.5,562C 293.305,537.139 268.472,511.972 244,486.5C 243.333,423.5 243.333,360.5 244,297.5C 269.833,271.667 295.667,245.833 321.5,220C 406.5,219.333 491.5,219.333 576.5,220C 603.67,245.337 630.337,271.17 656.5,297.5 Z"/></g>
<g><path style="opacity:1" fill="#c34116" d="M 656.5,297.5 C 657.498,331.663 657.832,365.996 657.5,400.5C 610.33,400.832 563.33,400.499 516.5,399.5C 563.167,399.5 609.833,399.5 656.5,399.5C 656.5,365.5 656.5,331.5 656.5,297.5 Z"/></g>
<g><path style="opacity:0.912" fill="#f54c0b" d="M 627.5,776.5 C 632.167,776.5 636.833,776.5 641.5,776.5C 641.5,777.833 641.5,779.167 641.5,780.5C 639.833,780.5 638.167,780.5 636.5,780.5C 636.5,785.167 636.5,789.833 636.5,794.5C 635.167,794.5 633.833,794.5 632.5,794.5C 632.5,789.833 632.5,785.167 632.5,780.5C 630.833,780.5 629.167,780.5 627.5,780.5C 627.5,779.167 627.5,777.833 627.5,776.5 Z"/></g>
<g><path style="opacity:0.901" fill="#e74912" d="M 642.5,776.5 C 644.604,776.201 646.604,776.534 648.5,777.5C 649.645,780.748 650.479,784.081 651,787.5C 651.771,784.141 652.605,780.808 653.5,777.5C 655.396,776.534 657.396,776.201 659.5,776.5C 659.5,782.5 659.5,788.5 659.5,794.5C 658.167,794.5 656.833,794.5 655.5,794.5C 655.47,783.932 654.804,783.932 653.5,794.5C 651.833,794.5 650.167,794.5 648.5,794.5C 647.188,782.587 646.521,782.587 646.5,794.5C 645.167,794.5 643.833,794.5 642.5,794.5C 642.5,788.5 642.5,782.5 642.5,776.5 Z"/></g>
</svg>
