<?xml version="1.0" encoding="utf-8"?>
<!-- Generator: Adobe Illustrator 23.0.2, SVG Export Plug-In . SVG Version: 6.00 Build 0)  -->
<svg version="1.1" id="Layer_1" xmlns="http://www.w3.org/2000/svg" xmlns:xlink="http://www.w3.org/1999/xlink" x="0px" y="0px"
	 viewBox="0 0 605 189" style="enable-background:new 0 0 605 189;" xml:space="preserve">
<style type="text/css">
	.st0{fill:#FFFFFF;}
</style>
<g>
	<g>
		<g>
			<path class="st0" d="M260,133.5c-6,3.5-12.7,5.3-20.9,5.3c-23.6,0-37.3-16.4-37.3-44.1c0-19.7,7.5-32.8,17.5-39.6
				c5.7-3.8,14-6.3,21.2-6.3c5.7,0,11.9,1.3,16.5,3.8c3.2,1.7,4.7,2.8,8.4,6l-10.9,14.7c-4.5-4.2-9.4-6.7-13.5-6.7
				c-10,0-14.5,8.7-14.5,28.7c0,11.2,1.5,17.9,4.3,21.6c2.3,3,6.2,4.8,10,4.8c5.2,0,9.9-2.2,15.4-7l1.3-1.2l10.2,13.5
				C264.5,130.5,263,131.6,260,133.5z"/>
			<path class="st0" d="M334.5,126.8c-6.5,7.4-15,11.9-28.2,11.9c-23.2,0-38.4-17.4-38.4-44.3c0-26.9,15.4-44.8,38.4-44.8
				c12.2,0,21.7,4.2,29.1,12.9c6.9,8,9.9,17.4,9.9,31.2C345.2,108.4,341.8,118.4,334.5,126.8z M316.3,70.6c-2.2-2.8-5.7-4.5-9.7-4.5
				c-5.3,0-9.7,3.3-11.5,8.7c-1.5,4.5-2.3,10.5-2.3,19c0,9.9,1,17.2,2.8,21.6c2,4.7,7,7,11.4,7c9.7,0,13.9-8.7,13.9-28.9
				C320.8,82,319.3,74.5,316.3,70.6z"/>
			<path class="st0" d="M408.2,139.2c-2.8-2-5.2-4.8-6.7-8.4c-5.5,5.3-13.5,8.2-22.6,8.2c-12,0-22.4-5.7-25.2-13.9
				c-1.3-3.8-1.8-8.4-1.8-17V53.3l22.1-4.2v55c0,7.7,0.7,11.7,1.8,14c1.2,2.3,4.5,4,7.9,4c5.5,0,12.2-4,13.9-8.2V53.8l21.4-4.5v65.3
				c0,5.7,1.8,11.5,5.2,15.5L408.2,139.2z"/>
			<path class="st0" d="M495.9,129c-5.8,6.2-13.5,9.7-22.9,9.7c-6.7,0-13-1.7-17.9-4.5c0.3,2,0.3,4.5,0.3,7v26.7l-21.6,5.7V74.7
				c0-11.2-0.2-14.4-1.3-21.6l19.9-3.5c0.8,3,1.3,5.3,1.5,8c3.8-4.7,12.4-8,21.1-8c6,0,12.2,2,16.9,5.2c9.2,6.2,15.9,17.2,15.9,36.9
				C507.8,110.1,504.8,119.4,495.9,129z M481.2,75c-1.7-4.7-5.2-7.2-10.7-7.2c-5.5,0-10.9,2.3-14.9,6.5v41.6c3,2.5,7.9,5,12.4,5
				c11,0,15.4-7.5,15.4-27.1C483.4,85.7,482.7,79.2,481.2,75z"/>
			<path class="st0" d="M575.8,141.2c-5.2-2.2-9.9-6-12-10.4c-1.7,1.7-3.5,3.3-5.2,4.5c-4.2,3-10.2,4.7-17.2,4.7
				c-19,0-29.4-9.7-29.4-26.7c0-20.1,13.9-29.4,41.1-29.4c1.7,0,3.2,0,5,0.2v-3.5c0-9.5-1.8-12.7-10-12.7c-7.2,0-15.5,3.5-24.7,9.7
				l-9.5-16c4.5-2.8,7.9-4.5,13.9-7c8.4-3.5,15.5-5,23.4-5c14.4,0,24.2,5.3,27.6,14.9c1.2,3.5,1.7,6.2,1.5,15.4l-0.5,28.7
				c-0.2,9.4,0.5,13.4,8,19L575.8,141.2z M556.7,99.4c-15.5,0-20.9,2.8-20.9,13c0,6.7,4.2,11.2,9.9,11.2c4.2,0,8.4-2.2,11.7-5.8
				l0.3-18.4H556.7z"/>
		</g>
	</g>
	<path class="st0" d="M167.1,91.2c13.1,8.3,21.7,17,20.3,21.9c-1.4,4.8-11.8,4.4-25.7-0.1c9.3,12.8,14,24.3,10.4,28.5
		c-3.9,4.6-16.2-1.4-29.7-13.1c4.1,18.3,3.8,33.7-2.4,36.3c-6,2.5-14.8-8.1-22.2-24.1c-4,18-10.7,31.4-17.4,31.1
		c-7.1-0.3-10.8-16-10.3-36c-12.3,16.4-25.3,27.1-31.1,23.6c-5.5-3.3-2.3-17.5,5.8-34.1c-15.9,9.1-29.3,12.9-32.3,7.8
		c-3.1-5.2,6.1-17.6,20.6-30.1c-17.7,2.6-30.7,1.2-30.9-4.4C22,93.4,32.6,86.6,47.6,80.9c-13.5-3.2-21.6-8-19.7-12.4
		c1.9-4.5,13.8-7.4,29-7.7c-10.3-7.2-15.2-14.1-11.8-17.5c3.1-3,12.4-2.4,23.7,1.1c-4.8-8.3-5.6-14.7-1.9-16.6
		c3.9-1.9,12,1.5,20.8,8.2C87,26.7,89,20.1,93.1,19.5c3.9-0.6,9,3.9,13.6,11.5c3-7.8,7.2-12.5,11-12c4,0.5,7.1,6.6,8.1,15.6
		c6.7-7,13.3-10.7,17-9.1c3.5,1.5,3.9,7.4,1.4,15.4c8.9-4.1,16.3-5.3,19.2-2.9c3.2,2.6,0.5,9.1-6.4,16.5c12.1-1.3,21.4,0,23.5,3.6
		c2,3.5-3.1,8.5-12.8,13.1c12.2,2.9,20.9,7.2,21.6,11.4C190,87.2,180.9,90.5,167.1,91.2z M159.8,91.3c-4.6-3.4-10.4-7-16.9-10.1
		c-2.2-1.1-4.4-2-6.6-2.9c2.2-0.4,4.4-1,6.6-1.6c7.2-2,13.3-4.4,17.5-7c4.9-2.9,7.3-5.8,6.1-8.1c-1.3-2.4-6.4-3.5-13.5-3.2
		c-4.9,0.2-10.7,0.9-16.8,2.4c-2.1,0.5-4.2,1.1-6.2,1.7c1.1-1.5,2.1-3.1,3.1-4.8c3.1-5.3,5-10.2,5.8-14.2c0.9-4.5,0.3-7.8-1.9-8.8
		c-2.4-1.1-6.4,0.8-10.8,4.6c-3.1,2.7-6.3,6.4-9.3,10.9c-1.1,1.6-2,3.2-2.9,4.8c-0.5-1.7-1-3.5-1.6-5.3c-2-5.6-4.6-10.4-7.2-13.9
		c-3-4-6.1-6.2-8.6-5.8c-2.7,0.5-4.2,4.2-4.3,9.7c0,3.9,0.7,8.7,2.2,13.9c0.5,1.8,1.1,3.7,1.8,5.4c-1.8-1-3.7-2-5.8-3
		c-6.5-3.1-13-5.4-18.4-6.6C65.7,48,60.8,48.2,59,50.1c-2,2.2,0.3,6.2,5.6,10.7c3.7,3.1,8.8,6.4,14.9,9.5c2.1,1.1,4.2,2,6.3,2.9
		c-2.4,0.4-4.9,0.9-7.4,1.6c-8.6,2.1-16.5,4.8-22.5,7.8c-7.4,3.6-12.1,7.4-11.8,10.3c0.3,3.3,6.8,4.7,16.2,4.1
		c6.3-0.4,14-1.7,22.1-3.9c2.7-0.7,5.3-1.5,7.7-2.3c-1.5,2-3.1,4.1-4.6,6.4c-5.2,7.8-9.3,15.8-11.8,22.5c-3,8.4-3.5,14.9-0.3,16.7
		c3.5,2,10.2-2.4,17.4-10.3c4.7-5.1,9.5-11.7,13.7-19c1.4-2.4,2.6-4.7,3.8-7c0.5,2.4,1.1,4.9,1.9,7.5c2.6,8.9,6.1,17,9.7,23
		c4.5,7.4,9.1,11.6,12.6,10.3c3.7-1.4,4.8-8.8,3.5-18.6c-0.8-6.3-2.5-13.7-5.2-21c-0.9-2.4-1.8-4.8-2.7-7c2.1,1.2,4.3,2.5,6.7,3.6
		c7.9,4,15.5,6.7,21.6,8c7.3,1.6,12.4,1.2,13.4-1.6C170.7,101.4,166.7,96.5,159.8,91.3z"/>
</g>
</svg>
