<?xml version="1.0" encoding="UTF-8" standalone="no"?>
<!DOCTYPE svg PUBLIC "-//W3C//DTD SVG 1.1//EN" "http://www.w3.org/Graphics/SVG/1.1/DTD/svg11.dtd">
<svg
    xmlns:svg="http://www.w3.org/2000/svg"
    xmlns="http://www.w3.org/2000/svg"
    version="1.1"
    width="840.96698"
    height="139.42543"
    id="svg3560">
  <defs id="defs3562" />
  <path
      d="m 302.58136,119.06073 c -9.01338,-0.079 -14.52001,-3.92045 -14.52001,-9.5979 0,-4.42378 3.51401,-7.72273 14.57558,-7.72273 l 15.88045,0 c 0,0 0.007,2.69945 0.007,4.59819 0,8.4681 -5.6874,12.81998 -15.94315,12.72244 m 15.90965,-33.440327 -15.02467,0 c -26.5377,0 -37.70744,8.584895 -37.70744,25.647027 0,17.06155 15.57852,27.58203 37.24252,27.58203 22.28404,0 36.67221,-11.70856 37.8114,-29.72335 0.23137,-3.81163 0.33095,-6.61083 0.32818,-11.142019 -0.0117,-4.596764 -0.13458,-7.845276 -0.3766,-11.69726 -1.3661,-21.49534 -16.73616,-29.429465 -37.22615,-29.429465 -12.924,0 -23.11206,3.049803 -24.83261,3.501908 l 0,18.409802 c 2.34137,-0.76388 11.47866,-3.795123 19.87064,-3.795123 11.05588,0 19.50329,2.377091 19.91473,10.64645"
      id="path3457"
      style="fill:#ff0d00;fill-opacity:1;fill-rule:nonzero;stroke:none;"
  />
  <path
      d="m 397.91828,95.873373 30.46226,-36.162069 -29.089,0 -23.99982,30.945109 0,-62.478834 -24.3449,0 0,108.741991 24.3449,0 0,-31.76447 24.78291,31.76447 30.5371,0 -32.69345,-41.046197 z"
      id="path3459"
      style="fill:#ff0d00;fill-opacity:1;fill-rule:nonzero;stroke:none;"
  />
  <path
      d="m 127.26927,77.256276 c -10.63451,0 -17.89801,7.91415 -17.89801,20.43237 0,12.343004 7.2635,20.193174 17.89801,20.193174 10.48276,0 17.90153,-7.85017 17.90153,-20.193174 0,-12.51822 -7.41877,-20.43237 -17.90153,-20.43237 m 0.0803,61.593974 c -24.27518,0 -42.091995,-15.94177 -42.091995,-40.903979 0,-25.136544 17.816815,-41.07832 42.091995,-41.07832 24.11794,0 41.93767,15.941776 41.93767,41.07832 0,24.962209 -17.81973,40.903979 -41.93767,40.903979"
      id="path3461"
      style="fill:#ff0d00;fill-opacity:1;fill-rule:nonzero;stroke:none;"
  />
  <path
      d="m 88.773642,31.692872 -31.790096,0 -30.562069,42.255188 0,-42.255188 -26.42147677109296,0 0,105.226698 26.42147677109296,0 0,-45.758462 32.323455,45.758462 33.842495,0 L 50.933073,80.879196 88.773642,31.692872 z"
      id="path3463"
      style="fill:#ff0d00;fill-opacity:1;fill-rule:nonzero;stroke:none;"
  />
  <path
      d="m 218.7583,117.88182 c -10.64173,0 -17.90094,-7.84946 -17.90094,-20.194603 0,-12.518117 7.25921,-20.430227 17.90094,-20.430227 10.47843,0 18.08798,7.91211 18.08798,20.430227 0,12.345143 -7.60955,20.194603 -18.08798,20.194603 m 41.12525,-89.703614 -24.22405,0 0,33.584753 c -1.22792,-0.841327 -8.31781,-4.895665 -18.19919,-4.895665 -23.49631,0 -40.72363,15.942433 -40.72363,41.079692 0,24.962304 17.81901,40.903974 42.10629,40.903974 27.73228,0 41.04058,-19.3197 41.04058,-44.277522 l 0,-66.395232 z"
      id="path3465"
      style="fill:#ff0d00;fill-opacity:1;fill-rule:nonzero;stroke:none;"
  />
  <path
      d="m 544.99351,136.84335 -22.27126,0 0,-7.2621 -0.32178,0 c -4.84108,6.29396 -13.23292,9.84418 -21.46249,9.84418 -23.23946,0 -36.47243,-21.14077 -36.47243,-42.603976 0,-20.979769 13.3952,-41.797193 36.14918,-41.797193 8.22961,0 16.62159,3.550124 22.10752,10.006484 l 0,-7.424415 22.27126,0 0,79.23702 z M 524.98312,97.143945 c 0,-10.650708 -7.26132,-22.108815 -18.88242,-22.108815 -11.61837,0 -18.71886,11.458107 -18.71886,22.108815 0,10.650895 7.10049,22.270515 18.71886,22.270515 11.6211,0 18.88242,-11.61962 18.88242,-22.270515"
      id="path3477"
      style="fill:#ffffff;fill-opacity:1;fill-rule:nonzero;stroke:none;"
  />
  <path
      d="m 583.72957,136.84335 -22.59451,0 0,-136.8472197 22.59451,0 0,136.8472197 z"
      id="path3479"
      style="fill:#ffffff;fill-opacity:1;fill-rule:nonzero;stroke:none;"
  />
  <path
      d="m 674.42336,136.84335 -22.26979,0 0,-7.2621 -0.32321,0 c -4.84096,6.29396 -13.23287,9.84418 -21.4625,9.84418 -23.2395,0 -36.47229,-21.14077 -36.47229,-42.603976 0,-20.979769 13.3952,-41.797193 36.14908,-41.797193 8.22953,0 16.62298,3.550124 22.10892,10.006484 l 0,-7.424415 22.26979,0 0,79.23702 z M 654.41315,97.143945 c 0,-10.650708 -7.25849,-22.108815 -18.88113,-22.108815 -11.61838,0 -18.72033,11.458107 -18.72033,22.108815 0,10.650895 7.10195,22.270515 18.72033,22.270515 11.62264,0 18.88113,-11.61962 18.88113,-22.270515"
      id="path3481"
      style="fill:#ffffff;fill-opacity:1;fill-rule:nonzero;stroke:none;"
  />
  <path
      d="m 713.15959,65.836615 0.32312,0 c 4.51792,-6.938266 11.29508,-10.812354 19.68701,-10.812354 3.22778,0 6.45554,0.807955 9.36279,1.93633 l -2.7476,20.980454 c -2.74395,-1.937758 -5.96878,-2.904618 -9.35888,-2.904618 -15.65193,0 -17.26644,13.877247 -17.26644,26.143353 l 0,35.66357 -22.59451,0 0,-79.23702 22.59451,0 0,8.230285 z"
      id="path3483"
      style="fill:#ffffff;fill-opacity:1;fill-rule:nonzero;stroke:none;"
  />
  <path
      d="m 775.45133,24.36168 c 0,7.424546 -5.96879,13.395997 -13.39253,13.395997 -7.42373,0 -13.3968,-5.971451 -13.3968,-13.395997 0,-7.260713 5.97307,-13.392964 13.3968,-13.392964 7.42374,0 13.39253,6.132251 13.39253,13.392964 m -2.09745,112.48167 -22.59443,0 0,-79.236349 22.59443,0 0,79.236349 z"
      id="path3485"
      style="fill:#ffffff;fill-opacity:1;fill-rule:nonzero;stroke:none;"
  />
  <path
      d="m 827.73902,76.326434 c -3.22608,-3.066074 -7.42374,-5.487969 -11.9414,-5.487969 -3.71187,0 -7.42374,2.9059 -7.42374,6.778034 0,5.810518 8.22953,7.424459 16.29835,10.97467 8.23094,3.550314 16.29976,9.037685 16.29976,22.754661 0,17.58897 -14.20107,28.07885 -30.82261,28.07885 -10.6501,0 -20.97992,-4.84025 -27.91805,-13.23205 l 10.32706,-13.39448 c 4.35811,4.8402 10.16724,9.19838 16.78519,9.19838 5.00318,0 9.03826,-3.38861 9.03826,-8.55277 0,-6.94027 -7.91068,-8.55278 -15.81852,-11.94215 -7.90784,-3.390091 -15.81425,-8.070281 -15.81425,-20.817506 0,-14.847489 10.32956,-25.658385 25.17436,-25.658385 8.39185,0 19.04487,2.581909 25.50043,8.230241 l -9.68484,13.070474 z"
      id="path3487"
      style="fill:#ffffff;fill-opacity:1;fill-rule:nonzero;stroke:none;"
  />
</svg>
